<svg id="Layer_1" data-name="Layer 1" xmlns="http://www.w3.org/2000/svg" viewBox="0 0 749.47 182.98"><defs><style>.cls-1{font-size:150px;font-family:PoorRichard-Regular, Poor Richard;}.cls-1,.cls-2{fill:#1c75bc;}.cls-3{fill:#009444;}.cls-4{fill:#fbb040;}.cls-5{fill:#00aeef;}</style></defs><text class="cls-1" transform="translate(144.74 147.1)">ecoSphere</text><polygon class="cls-2" points="12.62 117.13 5.14 166.19 51.15 143.54 12.62 117.13"/><path class="cls-2" d="M129.65,294.08c-3.83-5.75-9.56-13.69-9-21a7.18,7.18,0,0,1,3.4-6c.92-2.15,2.85-3.91,6.2-4.87,7.14-2.05,15.57,1.61,22.14,4.08a164.67,164.67,0,0,0,24.73,7.54,59.39,59.39,0,1,0-32.54,39.32C138.85,307.6,134,300.68,129.65,294.08Z" transform="translate(-60.38 -159.43)"/><circle class="cls-3" cx="111.4" cy="32" r="10.55"/><circle class="cls-4" cx="147.15" cy="14.98" r="14.98"/><circle class="cls-5" cx="132.85" cy="59.91" r="14.3"/><circle class="cls-4" cx="130.65" cy="92.77" r="8.68"/><path class="cls-2" d="M144.62,313.12l-14-36.56,46.56-2.76L147.7,261.89s-8.93-2.21-9.7-2.51-9.45,1.24-10.47,1.49-8.34,3.58-7.87,4.85-1.32,7.66-1.32,9.45-.68,11,1.32,15.06,4.55,9.71,9.15,14a38.25,38.25,0,0,0,8.93,6.38Z" transform="translate(-60.38 -159.43)"/></svg>